<?xml version="1.0" encoding="UTF-8"?>
<svg viewBox="0 0 800 450" xmlns="http://www.w3.org/2000/svg">
  <!-- Background gradient -->
  <defs>
    <linearGradient id="bgGradient" x1="0%" y1="0%" x2="100%" y2="100%">
      <stop offset="0%" stop-color="#0a192f" />
      <stop offset="100%" stop-color="#112240" />
    </linearGradient>
    
    <!-- Circuit pattern -->
    <pattern id="circuitPattern" patternUnits="userSpaceOnUse" width="100" height="100" patternTransform="scale(0.5) rotate(0)">
      <path d="M100 0 L100 100 M0 100 L100 100" stroke="#1a365d" stroke-width="1" fill="none" />
      <path d="M25 25 L25 75 L75 75" stroke="#1a365d" stroke-width="1" fill="none" />
      <circle cx="75" cy="25" r="3" fill="#3182ce" opacity="0.5" />
      <circle cx="25" cy="25" r="3" fill="#3182ce" opacity="0.5" />
      <circle cx="75" cy="75" r="3" fill="#3182ce" opacity="0.5" />
    </pattern>
    
    <!-- Data flow gradient -->
    <linearGradient id="dataFlow" x1="0%" y1="0%" x2="100%" y2="0%">
      <stop offset="0%" stop-color="#3182ce" />
      <stop offset="100%" stop-color="#63b3ed" />
    </linearGradient>
    
    <!-- Video play button gradient -->
    <linearGradient id="playGradient" x1="0%" y1="0%" x2="100%" y2="100%">
      <stop offset="0%" stop-color="#4299e1" />
      <stop offset="100%" stop-color="#3182ce" />
    </linearGradient>
    
    <!-- AI processor gradient -->
    <linearGradient id="aiGradient" x1="0%" y1="0%" x2="100%" y2="100%">
      <stop offset="0%" stop-color="#4c51bf" />
      <stop offset="100%" stop-color="#6b46c1" />
    </linearGradient>
  </defs>
  
  <!-- Main background -->
  <rect width="800" height="450" fill="url(#bgGradient)" />
  
  <!-- Circuit pattern overlay -->
  <rect width="800" height="450" fill="url(#circuitPattern)" opacity="0.15" />
  
  <!-- Container boxes -->
  <g id="containers">
    <!-- Video source container -->
    <rect x="80" y="150" width="160" height="150" rx="10" ry="10" fill="#1a365d" stroke="#2d3748" stroke-width="2" />
    
    <!-- Processing container -->
    <rect x="320" y="120" width="160" height="210" rx="10" ry="10" fill="#2a4365" stroke="#2d3748" stroke-width="2" />
    
    <!-- Output/insights container -->
    <rect x="560" y="150" width="160" height="150" rx="10" ry="10" fill="#1a365d" stroke="#2d3748" stroke-width="2" />
  </g>
  
  <!-- Video source elements -->
  <g id="videoSource">
    <rect x="110" y="170" width="100" height="70" rx="5" ry="5" fill="#0a192f" stroke="#2d3748" stroke-width="1" />
    <circle cx="160" cy="205" r="25" fill="url(#playGradient)" />
    <polygon points="155,195 155,215 170,205" fill="white" />
    <text x="160" y="260" font-family="Arial, sans-serif" font-size="12" fill="white" text-anchor="middle">Video Source</text>
    <circle cx="160" cy="275" r="3" fill="#48bb78" />
  </g>
  
  <!-- Processing elements -->
  <g id="processingLayer">
    <rect x="345" y="150" width="110" height="40" rx="5" ry="5" fill="#2c5282" stroke="#2d3748" stroke-width="1" />
    <text x="400" y="175" font-family="Arial, sans-serif" font-size="12" fill="white" text-anchor="middle">Transcription</text>
    
    <rect x="345" y="205" width="110" height="40" rx="5" ry="5" fill="url(#aiGradient)" stroke="#2d3748" stroke-width="1" />
    <text x="400" y="230" font-family="Arial, sans-serif" font-size="12" fill="white" text-anchor="middle">AI Processing</text>
    
    <rect x="345" y="260" width="110" height="40" rx="5" ry="5" fill="#2c5282" stroke="#2d3748" stroke-width="1" />
    <text x="400" y="285" font-family="Arial, sans-serif" font-size="12" fill="white" text-anchor="middle">Model Training</text>
  </g>
  
  <!-- Output elements -->
  <g id="outputLayer">
    <rect x="585" y="175" width="110" height="20" rx="3" ry="3" fill="#2c5282" stroke="#2d3748" stroke-width="1" />
    <rect x="585" y="205" width="90" height="20" rx="3" ry="3" fill="#2c5282" stroke="#2d3748" stroke-width="1" />
    <rect x="585" y="235" width="100" height="20" rx="3" ry="3" fill="#2c5282" stroke="#2d3748" stroke-width="1" />
    <circle cx="640" cy="275" r="15" fill="#4c51bf" opacity="0.7" />
    <text x="640" y="260" font-family="Arial, sans-serif" font-size="12" fill="white" text-anchor="middle">Insights</text>
  </g>
  
  <!-- Connection lines -->
  <g id="connections">
    <!-- From video to processing -->
    <path d="M240 225 C270 225, 290 225, 320 225" stroke="url(#dataFlow)" stroke-width="3" fill="none" />
    <circle cx="260" cy="225" r="3" fill="#4299e1" opacity="0.8">
      <animate attributeName="cx" from="240" to="320" dur="3s" repeatCount="indefinite" />
    </circle>
    <circle cx="280" cy="225" r="3" fill="#4299e1" opacity="0.8">
      <animate attributeName="cx" from="240" to="320" dur="3s" begin="1s" repeatCount="indefinite" />
    </circle>
    
    <!-- From processing to output -->
    <path d="M480 225 C510 225, 530 225, 560 225" stroke="url(#dataFlow)" stroke-width="3" fill="none" />
    <circle cx="500" cy="225" r="3" fill="#4299e1" opacity="0.8">
      <animate attributeName="cx" from="480" to="560" dur="3s" repeatCount="indefinite" />
    </circle>
    <circle cx="520" cy="225" r="3" fill="#4299e1" opacity="0.8">
      <animate attributeName="cx" from="480" to="560" dur="3s" begin="1s" repeatCount="indefinite" />
    </circle>
  </g>
  
  <!-- Multi-tenant elements -->
  <g id="tenants">
    <rect x="320" y="80" width="160" height="30" rx="5" ry="5" fill="#2c5282" stroke="#2d3748" stroke-width="1" />
    <text x="400" y="100" font-family="Arial, sans-serif" font-size="14" fill="white" text-anchor="middle" font-weight="bold">Multi-Tenant Architecture</text>
  </g>
  
  <!-- Title -->
  <g id="title">
    <text x="400" y="50" font-family="Arial, sans-serif" font-size="24" fill="white" text-anchor="middle" font-weight="bold">Video Processing Platform</text>
    <text x="400" y="80" font-family="Arial, sans-serif" font-size="16" fill="#63b3ed" text-anchor="middle">AI-Powered Insights Engine</text>
  </g>
  
  <!-- Bottom infobar -->
  <g id="infobar">
    <rect x="0" y="400" width="800" height="50" fill="#0a192f" />
    <text x="400" y="430" font-family="Arial, sans-serif" font-size="14" fill="#a0aec0" text-anchor="middle">Secure • Scalable • Multi-Tenant • Intelligent</text>
  </g>
</svg>